<svg xmlns="http://www.w3.org/2000/svg" width="256" height="256" viewBox="0 0 100 100"><rect width="100" height="100" rx="20" fill="#212529"></rect><path fill="#fff" d="M45.66 51.19L45.66 66.38Q45.66 67.64 44.92 68.48Q44.19 69.32 42.72 70.09L42.72 70.09Q40.97 70.93 37.89 71.56Q34.81 72.19 31.66 72.19L31.66 72.19Q26.76 72.19 22.70 70.86Q18.64 69.53 15.70 66.80Q12.76 64.07 11.15 59.91Q9.54 55.74 9.54 50.07L9.54 50.07Q9.54 44.47 11.22 40.27Q12.90 36.07 15.80 33.30Q18.71 30.54 22.56 29.17Q26.41 27.81 30.75 27.81L30.75 27.81Q33.69 27.81 36.17 28.30Q38.66 28.79 40.41 29.59Q42.16 30.40 43.14 31.38Q44.12 32.36 44.12 33.34L44.12 33.34Q44.12 34.32 43.56 35.02Q43.00 35.72 42.23 36.07L42.23 36.07Q40.34 34.81 37.75 33.72Q35.16 32.64 31.10 32.64L31.10 32.64Q27.74 32.64 24.87 33.76Q22.00 34.88 19.90 37.05Q17.80 39.22 16.61 42.51Q15.42 45.80 15.42 50.07L15.42 50.07Q15.42 54.62 16.64 57.88Q17.87 61.13 20.07 63.23Q22.28 65.33 25.25 66.34Q28.23 67.36 31.73 67.36L31.73 67.36Q34.25 67.36 36.49 66.94Q38.73 66.52 39.99 65.89L39.99 65.89L39.99 53.01L29.42 53.01Q29.21 52.66 29.00 52.06Q28.79 51.47 28.79 50.77L28.79 50.77Q28.79 49.58 29.35 48.91Q29.91 48.25 30.96 48.25L30.96 48.25L42.65 48.25Q43.91 48.25 44.78 49.05Q45.66 49.86 45.66 51.19L45.66 51.19ZM59.80 71.63L59.80 71.63Q56.72 71.63 56.72 69.11L56.72 69.11L56.72 29.56Q57.98 28.30 60.50 28.30L60.50 28.30Q62.18 28.30 63.37 28.96Q64.56 29.63 65.54 31.38L65.54 31.38L78.91 53.78Q79.75 55.25 80.66 56.89Q81.57 58.54 82.41 60.19Q83.25 61.83 83.98 63.27Q84.72 64.70 85.21 65.68L85.21 65.68L85.49 65.61Q84.93 59.94 84.82 54.20Q84.72 48.46 84.72 43L84.72 43L84.72 28.86Q85.14 28.72 85.84 28.54Q86.54 28.37 87.38 28.37L87.38 28.37Q90.46 28.37 90.46 30.89L90.46 30.89L90.46 70.51Q89.83 71.07 88.85 71.39Q87.87 71.70 86.68 71.70L86.68 71.70Q85 71.70 83.81 71.03Q82.62 70.37 81.64 68.62L81.64 68.62L68.34 46.22Q67.50 44.82 66.55 43.14Q65.61 41.46 64.73 39.85Q63.86 38.24 63.13 36.77Q62.39 35.30 61.90 34.32L61.90 34.32L61.62 34.39Q61.97 37.75 62.18 42.05Q62.39 46.36 62.39 50.21L62.39 50.21L62.39 71.14Q62.04 71.28 61.30 71.45Q60.57 71.63 59.80 71.63Z"></path></svg>